<?xml version="1.0" standalone="no"?>
<!DOCTYPE svg PUBLIC "-//W3C//DTD SVG 20010904//EN"
 "http://www.w3.org/TR/2001/REC-SVG-20010904/DTD/svg10.dtd">
<svg version="1.0" xmlns="http://www.w3.org/2000/svg"
 width="224.000000pt" height="224.000000pt" viewBox="0 0 224.000000 224.000000"
 preserveAspectRatio="xMidYMid meet">
<metadata>
Created by potrace 1.16, written by Peter Selinger 2001-2019
</metadata>
<g transform="translate(0.000000,224.000000) scale(0.100000,-0.100000)"
fill="#000000" stroke="none">
<path d="M0 1120 l0 -1120 1120 0 1120 0 0 1120 0 1120 -1120 0 -1120 0 0
-1120z m1480 915 c0 -13 -77 -15 -635 -15 l-635 0 0 -344 0 -345 38 16 c28 12
57 14 122 10 124 -9 132 -12 128 -55 l-3 -36 -60 4 c-132 9 -174 -3 -197 -58
-15 -35 -15 -249 0 -284 20 -48 54 -62 148 -60 46 1 89 3 96 4 8 2 14 -10 16
-33 4 -45 -4 -49 -118 -56 -61 -4 -97 -1 -127 10 l-43 15 0 -294 0 -294 905 0
905 0 0 283 0 282 -97 0 c-118 0 -156 17 -190 85 -22 42 -23 56 -23 262 l0
218 44 0 45 0 3 -214 c3 -209 4 -215 26 -239 13 -14 39 -28 58 -31 44 -9 111
10 124 34 6 11 10 100 10 213 0 351 11 617 27 617 10 0 13 -38 13 -190 l0
-190 31 0 30 0 -3 -233 -3 -234 -27 -35 -28 -36 -2 -314 -3 -313 -937 -3 -938
-2 0 325 c0 319 0 327 -22 368 -21 38 -23 55 -23 197 0 141 2 159 23 198 22
42 22 48 22 412 l0 370 650 0 c571 0 650 -2 650 -15z m-835 -925 c22 -132 42
-240 45 -240 4 0 31 108 60 240 l53 241 55 -3 55 -3 52 -233 c29 -127 55 -235
58 -238 10 -10 13 5 53 249 l37 227 49 0 c26 0 48 -4 48 -8 0 -8 -95 -489
-105 -529 -5 -21 -11 -23 -79 -23 -73 0 -75 0 -80 28 -23 109 -86 396 -89 398
-1 1 -22 -94 -47 -212 l-45 -214 -75 0 -76 0 -52 268 c-29 147 -52 273 -52
280 0 8 16 12 48 12 l48 0 39 -240z m925 218 c59 -31 82 -72 83 -151 1 -68
-10 -96 -55 -143 l-30 -32 41 -97 c23 -54 41 -102 41 -107 0 -4 -22 -8 -49 -8
l-49 0 -39 98 -39 97 -62 3 -61 3 -3 -98 -3 -98 -47 -3 -48 -3 0 280 0 281
138 0 c123 0 142 -2 182 -22z"/>
<path d="M1345 1170 l0 -100 77 0 c67 0 81 3 105 24 24 21 28 32 28 76 0 44
-4 55 -28 76 -24 21 -38 24 -105 24 l-77 0 0 -100z"/>
</g>
</svg>
