<?xml version="1.0" standalone="no"?>
<!DOCTYPE svg PUBLIC "-//W3C//DTD SVG 20010904//EN"
 "http://www.w3.org/TR/2001/REC-SVG-20010904/DTD/svg10.dtd">
<svg version="1.0" xmlns="http://www.w3.org/2000/svg"
 width="200.000000pt" height="200.000000pt" viewBox="0 0 200.000000 200.000000"
 preserveAspectRatio="xMidYMid meet">
<metadata>
Created by potrace 1.16, written by Peter Selinger 2001-2019
</metadata>
<g transform="translate(0.000000,200.000000) scale(0.100000,-0.100000)"
fill="#000000" stroke="none">
<path d="M0 1000 l0 -1000 1000 0 1000 0 0 1000 0 1000 -1000 0 -1000 0 0
-1000z m1682 412 c82 -28 131 -94 130 -177 -1 -98 -92 -275 -169 -328 -84 -58
-134 -70 -310 -75 l-162 -4 -54 -127 -54 -126 -422 -3 c-231 -1 -421 1 -421 6
0 4 29 75 64 157 l65 150 88 3 88 3 43 102 c23 56 42 107 42 114 0 8 -26 13
-79 15 l-79 3 55 130 c30 72 59 140 64 153 l9 23 532 -4 c389 -2 543 -6 570
-15z"/>
<path d="M607 1278 c-15 -35 -27 -66 -27 -70 0 -5 38 -8 84 -8 l84 0 -86 -200
-85 -200 -88 0 -87 0 -26 -65 c-14 -36 -26 -67 -26 -70 0 -3 148 -5 329 -5
l328 0 31 70 31 70 -89 0 -89 0 23 53 23 52 264 6 c155 4 279 11 301 18 20 6
58 26 85 44 39 26 56 47 92 118 54 108 64 169 31 204 -13 14 -40 29 -59 35
-22 6 -233 10 -526 10 l-491 0 -27 -62z m804 -88 c38 -21 15 -86 -41 -115 -22
-12 -67 -15 -195 -15 -91 0 -165 3 -165 8 0 4 12 35 26 70 l27 62 164 0 c94 0
173 -4 184 -10z"/>
</g>
</svg>
